<svg width="100" height="46" viewBox="0 0 100 46" fill="none" xmlns="http://www.w3.org/2000/svg">
	<g clip-path="url(#clip0_17_635)">
		<path
			d="M57.565 1.91782H55.0353C54.3378 1.91782 53.7043 2.20299 53.2473 2.66086L51.748 4.163C51.748 3.54046 51.4433 2.48414 50.6335 1.67282C49.6553 0.692812 47.8352 0.508057 46.7929 0.508057H39.6609C39.6609 0.508057 40.4386 3.76136 42.2828 5.95433C44.3875 8.46057 46.3679 9.56509 46.3679 9.56509L48.4245 7.52876C48.4245 7.52876 45.6343 5.91014 44.0868 3.39988H46.6806C47.8152 3.39988 48.4245 4.12284 48.4245 5.21129V7.53278L51.748 4.17505V7.34802C51.748 8.61721 50.866 9.56911 49.3947 9.56911H46.3679L43.305 12.6377L41.5932 14.3527H44.1229C44.8204 14.3527 45.4539 14.0675 45.9109 13.6096L46.8811 12.6377H50.437C53.0308 12.6377 55.1356 10.529 55.1356 7.93041V4.34776L57.561 1.91782H57.565Z"
			fill="#005FBE" />
		<path
			d="M65.5789 17.0115C62.0149 17.0115 59.1165 19.8591 59.1165 23.3574C59.1165 26.8557 62.0149 29.7034 65.5789 29.7034C69.1429 29.7034 72.0414 26.8557 72.0414 23.3574C72.0414 19.8591 69.1429 17.0115 65.5789 17.0115ZM68.4894 23.3574C68.4894 25.0684 67.2386 26.3577 65.5789 26.3577C63.9192 26.3577 62.6684 25.0684 62.6684 23.3574C62.6684 21.6464 63.9192 20.3572 65.5789 20.3572C67.2386 20.3572 68.4894 21.6464 68.4894 23.3574Z"
			fill="#C20019" />
		<path
			d="M40.3102 32.8081C36.7463 32.8081 33.8438 35.6557 33.8438 39.1541C33.8438 42.6524 36.7422 45.5 40.3102 45.5C43.8782 45.5 46.7727 42.6524 46.7727 39.1541C46.7727 35.6557 43.8742 32.8081 40.3102 32.8081ZM43.2208 39.1541C43.2208 40.865 41.97 42.1543 40.3102 42.1543C38.6505 42.1543 37.3957 40.865 37.3957 39.1541C37.3957 37.4431 38.6465 36.1538 40.3102 36.1538C41.974 36.1538 43.2208 37.4431 43.2208 39.1541Z"
			fill="#C20019" />
		<path
			d="M17.9842 29.7034C20.0128 29.7034 21.8289 28.7716 22.9794 27.1369C23.4084 26.434 23.7091 25.6548 23.8774 24.8234L23.9055 24.6909H20.3736L20.3455 24.7592C19.9286 25.7914 19.0907 26.3577 17.9883 26.3577C16.3285 26.3577 15.0777 25.0684 15.0777 23.3574C15.0777 21.6464 16.3285 20.3572 17.9883 20.3572C19.0266 20.3572 19.8364 20.8672 20.2774 21.795L20.3095 21.8593H23.8815L23.8534 21.7227C23.701 21.0279 23.4445 20.3612 23.0957 19.7426C21.9612 18.0075 20.101 17.0115 17.9923 17.0115C14.4283 17.0115 11.5298 19.8591 11.5298 23.3574C11.5298 26.8557 14.4283 29.7034 17.9923 29.7034"
			fill="#C20019" />
		<path
			d="M20.4418 40.5558C20.0249 41.588 19.187 42.1543 18.0845 42.1543C16.4248 42.1543 15.174 40.865 15.174 39.1541C15.174 37.4431 16.4248 36.1538 18.0845 36.1538C19.1229 36.1538 19.9327 36.6639 20.3737 37.5917L20.4017 37.6559H23.9737L23.9457 37.5194C23.7893 36.8205 23.5368 36.1578 23.188 35.5393C22.0534 33.8042 20.1893 32.8081 18.0845 32.8081C14.5206 32.8081 11.6221 35.6557 11.6221 39.1541C11.6221 42.6524 14.5206 45.5 18.0845 45.5C20.1131 45.5 21.9332 44.5682 23.0797 42.9335C23.5087 42.2306 23.8094 41.4514 23.9777 40.62L24.0058 40.4875H20.4739L20.4458 40.5558H20.4418Z"
			fill="#C20019" />
		<path
			d="M40.4466 29.4624L41.8938 26.3496H44.4796V29.4624H47.9394V17.3649L47.9153 17.2524H41.5571C39.1958 17.2524 37.2755 19.1763 37.2755 21.542V22.0561C37.2755 23.3534 37.8528 24.5623 38.859 25.3817L36.9628 29.4583H40.4466V29.4624ZM40.7352 21.803C40.7352 21.0239 41.3686 20.3933 42.1424 20.3933H44.4796V23.2168H42.1424C41.3646 23.2168 40.7352 22.5822 40.7352 21.8071"
			fill="#C20019" />
		<path
			d="M94.0025 39.8208C95.097 39.0135 95.7504 37.7282 95.7504 36.3666V33.0531H92.2907V36.1096C92.2907 36.8888 91.6573 37.5193 90.8835 37.5193H88.5703V33.0491H85.1106V45.259H88.5703V40.6562H90.9116L93.0364 45.2228H96.5202L94.0065 39.8208H94.0025Z"
			fill="#C20019" />
		<path
			d="M7.18409 42.1222H4.87091C4.09317 42.1222 3.46376 41.4876 3.46376 40.7124V33.0531H0V40.9695C0 43.3351 1.9203 45.259 4.28159 45.259H10.6398V33.0491H7.18008V42.1182L7.18409 42.1222Z"
			fill="#C20019" />
		<path d="M52.3092 29.4624H55.769V20.3893H59.1325V17.2524H48.9457V20.3893H52.3092V29.4624Z"
			fill="#C20019" />
		<path d="M34.0402 33.0491H23.8534V36.1859H27.2169V45.259H30.6767V36.1859H34.0402V33.0491Z"
			fill="#C20019" />
		<path
			d="M79.9591 42.1222H77.646C76.8682 42.1222 76.2388 41.4876 76.2388 40.7124V33.0531H72.7791V40.9695C72.7791 43.3351 74.6994 45.259 77.0606 45.259H83.4189V33.0491H79.9591V42.1182V42.1222Z"
			fill="#C20019" />
		<path
			d="M67.6275 37.5193H63.3098V33.0491H59.8501V45.259H63.3098V40.6562H67.6275V45.259H71.0873V33.0491H67.6275V37.5193Z"
			fill="#C20019" />
		<path
			d="M54.7025 39.0416H52.3894C51.6116 39.0416 50.9822 38.407 50.9822 37.6318V33.0491H47.5225V37.8888C47.5225 40.2545 49.4428 42.1784 51.8041 42.1784H54.7025V45.255H58.1623V33.045H54.7025V39.0375V39.0416Z"
			fill="#C20019" />
		<path
			d="M28.3956 29.4584H30.0032C33.5672 29.4584 36.4657 26.7232 36.4657 23.3574C36.4657 21.3813 35.4515 19.5338 33.7476 18.3851C34.4051 17.4051 34.7699 16.2724 34.806 15.0916V12.0672H34.6938C34.6938 12.0672 31.4264 12.0632 31.3944 12.0632C27.8304 12.0632 24.9319 14.9109 24.9319 18.4132V29.4624H28.3916L28.3956 29.4584ZM28.3956 20.3772H29.9832C31.6509 20.3772 33.01 21.7107 33.01 23.3614C33.01 25.0122 31.6509 26.3175 29.9832 26.3175H28.3956V20.3772ZM28.2914 18.365C28.2914 18.365 28.2874 18.365 28.2834 18.365C28.2834 18.1883 28.3034 18.0156 28.3315 17.8469C28.3315 17.8469 28.3315 17.8388 28.3315 17.8348C28.5881 16.2443 29.895 15.0274 31.4785 15.0274C31.4785 15.0274 31.4826 15.0274 31.4866 15.0274C31.4625 16.8709 30.0433 18.361 28.2914 18.361"
			fill="#C20019" />
		<path
			d="M97.7149 32.9607C98.9738 32.9607 100 31.9405 100 30.6432C100 29.3459 98.9738 28.3539 97.7149 28.3539C96.4561 28.3539 95.4058 29.3741 95.4058 30.6432C95.4058 31.9124 96.424 32.9607 97.7149 32.9607ZM97.6989 28.7314C98.7573 28.7314 99.6152 29.5909 99.6152 30.6513C99.6152 31.7116 98.7533 32.5711 97.6989 32.5711C96.6445 32.5711 95.7826 31.7116 95.7826 30.6513C95.7826 29.5909 96.6445 28.7314 97.6989 28.7314Z"
			fill="#C20019" />
		<path
			d="M97.3902 30.0849H97.8191C97.9434 30.0849 98.0396 30.1854 98.0396 30.3059V30.4143C98.0396 30.595 97.8913 30.7436 97.7109 30.7436H97.5585L98.0717 31.8522H98.7973L98.3603 30.9043C98.6169 30.7838 98.7973 30.5227 98.7973 30.2215C98.7973 29.8038 98.4565 29.4624 98.0396 29.4624H96.7367V31.8522H97.3861C97.3861 31.8522 97.3861 30.1291 97.3861 30.0809"
			fill="#C20019" />
		<path d="M76.3831 17.2565H80.1074L81.3863 14.5133H76.3831V17.2565Z" fill="#C20019" />
		<path
			d="M80.3199 17.2524H80.1034V26.3215H77.7902C77.0125 26.3215 76.3831 25.6869 76.3831 24.9118V17.2524H72.9233V25.1688C72.9233 27.5345 74.8436 29.4624 77.2049 29.4624H83.5632V17.2524H80.3199Z"
			fill="#C20019" />
	</g>
	<defs>
		<clipPath id="clip0_17_635">
			<rect width="100" height="45" fill="white" transform="translate(0 0.5)" />
		</clipPath>
	</defs>
</svg>
